<svg xmlns="http://www.w3.org/2000/svg" xmlns:xlink="http://www.w3.org/1999/xlink" width="1500" zoomAndPan="magnify" viewBox="0 0 1125 1124.99995" height="1500" preserveAspectRatio="xMidYMid meet" version="1.0"><defs><clipPath id="1b82320665"><path d="M 0 2.046875 L 1125 2.046875 L 1125 1123 L 0 1123 Z M 0 2.046875 " clip-rule="nonzero"/></clipPath></defs><g clip-path="url(#1b82320665)"><path fill="#ff8434" d="M 1125.121094 564.613281 C 1125.121094 253.894531 873.273438 2.046875 562.601562 2.046875 C 251.929688 2.046875 0.03125 253.894531 0.03125 564.613281 C 0.03125 828.429688 181.648438 1049.832031 426.679688 1110.625 L 426.679688 736.535156 L 310.652344 736.535156 L 310.652344 564.613281 L 426.679688 564.613281 L 426.679688 490.546875 C 426.679688 299.082031 513.320312 210.320312 701.300781 210.320312 C 736.945312 210.320312 798.445312 217.289062 823.589844 224.304688 L 823.589844 380.121094 C 810.308594 378.707031 787.234375 378 758.605469 378 C 666.359375 378 630.714844 412.941406 630.714844 503.773438 L 630.714844 564.566406 L 814.449219 564.566406 L 782.894531 736.488281 L 630.714844 736.488281 L 630.714844 1122.996094 C 909.273438 1089.367188 1125.121094 852.160156 1125.121094 564.566406 Z M 1125.121094 564.613281 " fill-opacity="1" fill-rule="nonzero"/></g></svg>