<svg xmlns="http://www.w3.org/2000/svg" xmlns:xlink="http://www.w3.org/1999/xlink" width="1500" zoomAndPan="magnify" viewBox="0 0 1125 1124.99995" height="1500" preserveAspectRatio="xMidYMid meet" version="1.0"><path fill="#ff8434" d="M 329.390625 3.867188 C 269.566406 6.675781 228.710938 16.269531 192.992188 30.257812 C 156.003906 44.671875 124.6875 63.960938 93.527344 95.277344 C 62.316406 126.59375 43.132812 157.964844 28.878906 195.007812 C 15.050781 230.828125 5.671875 271.683594 3.019531 331.566406 C 0.371094 391.496094 -0.210938 410.628906 0.0546875 563.347656 C 0.316406 716.015625 1.007812 735.199219 3.867188 795.183594 C 6.730469 855.011719 16.269531 895.8125 30.257812 931.582031 C 44.671875 968.570312 63.960938 999.835938 95.277344 1031.046875 C 126.59375 1062.257812 157.964844 1081.386719 195.007812 1095.695312 C 230.777344 1109.527344 271.683594 1118.957031 331.511719 1121.554688 C 391.496094 1124.203125 410.628906 1124.789062 563.292969 1124.46875 C 716.015625 1124.203125 735.144531 1123.515625 795.128906 1120.65625 C 854.957031 1117.792969 895.761719 1108.203125 931.53125 1094.265625 C 968.515625 1079.796875 999.835938 1060.5625 1030.992188 1029.246094 C 1062.152344 997.925781 1081.335938 966.558594 1095.644531 929.515625 C 1109.472656 893.746094 1118.90625 852.835938 1121.503906 793.0625 C 1124.097656 733.078125 1124.734375 713.894531 1124.46875 561.226562 C 1124.203125 408.5625 1123.464844 389.429688 1120.65625 329.445312 C 1117.792969 269.566406 1108.253906 228.761719 1094.265625 192.992188 C 1079.796875 156.003906 1060.5625 124.742188 1029.246094 93.527344 C 997.925781 62.371094 966.558594 43.132812 929.515625 28.878906 C 893.746094 15.050781 852.835938 5.617188 793.011719 3.019531 C 733.023438 0.371094 713.84375 -0.210938 561.175781 0.0546875 C 408.507812 0.316406 389.378906 1.007812 329.390625 3.867188 M 335.964844 1020.289062 C 281.171875 1017.90625 251.390625 1008.789062 231.519531 1001.160156 C 205.234375 990.984375 186.527344 978.796875 166.761719 959.242188 C 147.050781 939.585938 134.863281 920.878906 124.582031 894.699219 C 116.898438 874.882812 107.625 845.152344 105.027344 790.308594 C 102.21875 731.0625 101.582031 713.257812 101.320312 563.136719 C 101.054688 413.066406 101.582031 395.261719 104.179688 335.964844 C 106.511719 281.171875 115.679688 251.390625 123.308594 231.570312 C 133.484375 205.289062 145.621094 186.582031 165.226562 166.816406 C 184.886719 147.101562 203.589844 134.914062 229.820312 124.636719 C 249.640625 116.898438 279.367188 107.679688 334.160156 105.082031 C 393.457031 102.273438 411.210938 101.691406 561.335938 101.371094 C 711.457031 101.054688 729.261719 101.582031 788.558594 104.234375 C 843.351562 106.617188 873.132812 115.679688 892.953125 123.363281 C 919.234375 133.539062 937.996094 145.621094 957.707031 165.277344 C 977.417969 184.9375 989.660156 203.589844 999.886719 229.875 C 1007.625 249.640625 1016.84375 279.421875 1019.441406 334.160156 C 1022.25 393.457031 1022.886719 411.261719 1023.152344 561.335938 C 1023.417969 711.457031 1022.886719 729.261719 1020.289062 788.507812 C 1017.90625 843.300781 1008.789062 873.132812 1001.160156 892.953125 C 990.984375 919.183594 978.851562 937.941406 959.191406 957.652344 C 939.53125 977.3125 920.878906 989.554688 894.59375 999.835938 C 874.828125 1007.570312 845.046875 1016.792969 790.308594 1019.390625 C 731.011719 1022.199219 713.257812 1022.832031 563.082031 1023.097656 C 413.011719 1023.363281 395.207031 1022.832031 335.910156 1020.238281 M 794.335938 261.722656 C 794.390625 298.976562 824.699219 329.128906 861.898438 329.019531 C 899.152344 328.96875 929.304688 298.710938 929.25 261.457031 C 929.199219 224.207031 898.886719 194.054688 861.632812 194.105469 C 824.382812 194.160156 794.230469 224.46875 794.28125 261.667969 M 273.539062 562.816406 C 273.859375 722.269531 403.367188 851.25 562.765625 850.929688 C 722.214844 850.613281 851.25 721.15625 850.929688 561.703125 C 850.613281 402.308594 721.101562 273.273438 561.652344 273.539062 C 402.253906 273.859375 273.222656 403.367188 273.539062 562.816406 M 374.804688 562.605469 C 374.648438 459.113281 458.371094 375.015625 561.863281 374.859375 C 665.355469 374.648438 749.453125 458.371094 749.664062 561.917969 C 749.875 665.410156 666.097656 749.503906 562.605469 749.664062 C 459.113281 749.875 375.019531 666.097656 374.859375 562.605469 " fill-opacity="1" fill-rule="nonzero"/></svg>