<svg xmlns="http://www.w3.org/2000/svg" xmlns:xlink="http://www.w3.org/1999/xlink" width="1500" zoomAndPan="magnify" viewBox="0 0 1125 1124.99995" height="1500" preserveAspectRatio="xMidYMid meet" version="1.0"><path fill="#ff8434" d="M 960.972656 161.734375 C 855.234375 55.882812 714.625 -2.519531 564.792969 -2.519531 C 256.074219 -2.519531 4.804688 248.691406 4.695312 557.523438 C 4.695312 656.21875 30.457031 752.625 79.472656 837.515625 L 0 1127.734375 L 296.925781 1049.828125 C 378.746094 1094.484375 470.847656 1117.957031 564.566406 1118.011719 L 564.792969 1118.011719 C 873.453125 1118.011719 1124.777344 866.746094 1124.832031 557.96875 C 1124.832031 408.304688 1066.710938 267.636719 960.917969 161.734375 Z M 564.792969 1023.449219 L 564.625 1023.449219 C 481.128906 1023.449219 399.144531 1000.984375 327.664062 958.566406 L 310.675781 948.449219 L 134.464844 994.667969 L 181.464844 822.875 L 170.398438 805.269531 C 123.789062 731.164062 99.199219 645.488281 99.253906 557.523438 C 99.367188 300.890625 308.214844 92.042969 564.957031 92.042969 C 689.308594 92.042969 806.167969 140.550781 894.074219 228.574219 C 981.984375 316.539062 1030.328125 433.511719 1030.273438 557.914062 C 1030.160156 814.601562 821.3125 1023.449219 564.734375 1023.449219 Z M 820.136719 674.828125 C 806.167969 667.84375 737.371094 633.976562 724.515625 629.335938 C 711.660156 624.644531 702.382812 622.351562 693.050781 636.324219 C 683.71875 650.351562 656.894531 681.871094 648.734375 691.203125 C 640.574219 700.539062 632.414062 701.710938 618.386719 694.667969 C 604.414062 687.683594 559.3125 672.875 505.832031 625.203125 C 464.25 588.09375 436.140625 542.265625 427.980469 528.238281 C 419.820312 514.210938 427.140625 506.667969 434.128906 499.679688 C 440.386719 493.421875 448.101562 483.304688 455.140625 475.144531 C 462.128906 466.988281 464.476562 461.117188 469.113281 451.785156 C 473.808594 442.453125 471.460938 434.292969 467.941406 427.25 C 464.417969 420.265625 436.476562 351.355469 424.796875 323.359375 C 413.449219 296.085938 401.882812 299.773438 393.332031 299.328125 C 385.171875 298.933594 375.839844 298.824219 366.503906 298.824219 C 357.171875 298.824219 342.027344 302.289062 329.171875 316.316406 C 316.320312 330.34375 280.214844 364.210938 280.214844 433.0625 C 280.214844 501.914062 330.347656 568.476562 337.386719 577.867188 C 344.375 587.199219 436.085938 728.535156 576.472656 789.171875 C 609.835938 803.59375 635.933594 812.199219 656.277344 818.683594 C 689.808594 829.355469 720.324219 827.847656 744.410156 824.214844 C 771.292969 820.191406 827.179688 790.347656 838.859375 757.652344 C 850.539062 724.960938 850.539062 696.960938 847.019531 691.09375 C 843.5 685.222656 834.164062 681.757812 820.195312 674.71875 Z M 820.136719 674.828125 " fill-opacity="1" fill-rule="evenodd"/></svg>